<svg width="26" height="21" viewBox="0 0 26 21" fill="none" xmlns="http://www.w3.org/2000/svg">
<path d="M23.0674 5.06025C23.0833 5.28232 23.0833 5.50444 23.0833 5.72651C23.0833 12.5 17.9278 20.3045 8.50522 20.3045C5.60229 20.3045 2.90562 19.4638 0.637207 18.0044C1.04966 18.052 1.44619 18.0679 1.87451 18.0679C4.26978 18.0679 6.47476 17.2589 8.23555 15.8788C5.98301 15.8312 4.09531 14.356 3.44492 12.3255C3.76221 12.373 4.07944 12.4048 4.4126 12.4048C4.87261 12.4048 5.33267 12.3413 5.76094 12.2303C3.41323 11.7544 1.65239 9.69224 1.65239 7.20176V7.13833C2.33447 7.51904 3.12769 7.75698 3.96836 7.78867C2.58828 6.8686 1.68413 5.29819 1.68413 3.52153C1.68413 2.56978 1.93789 1.69731 2.38208 0.935889C4.9043 4.04502 8.69556 6.07544 12.9468 6.29756C12.8675 5.91685 12.8199 5.52031 12.8199 5.12373C12.8199 2.3001 15.1041 0 17.9436 0C19.4188 0 20.7513 0.618652 21.6873 1.61802C22.8452 1.39595 23.9556 0.967627 24.9392 0.380713C24.5584 1.57046 23.7494 2.56982 22.6866 3.2043C23.7177 3.09331 24.7171 2.80771 25.6371 2.41118C24.9393 3.42637 24.0667 4.33052 23.0674 5.06025Z" fill="#094364"/>
</svg>
