<svg width="23" height="22" viewBox="0 0 23 22" fill="none" xmlns="http://www.w3.org/2000/svg">
<path d="M21.0747 0H2.31982C1.46045 0 0.762207 0.708008 0.762207 1.57715V20.2979C0.762207 21.167 1.46045 21.875 2.31982 21.875H21.0747C21.9341 21.875 22.6372 21.167 22.6372 20.2979V1.57715C22.6372 0.708008 21.9341 0 21.0747 0ZM7.37353 18.75H4.13135V8.31055H7.37842V18.75H7.37353ZM5.75244 6.88477C4.7124 6.88477 3.87256 6.04004 3.87256 5.00488C3.87256 3.96973 4.7124 3.125 5.75244 3.125C6.7876 3.125 7.63232 3.96973 7.63232 5.00488C7.63232 6.04492 6.79248 6.88477 5.75244 6.88477ZM19.5269 18.75H16.2847V13.6719C16.2847 12.4609 16.2603 10.9033 14.6001 10.9033C12.9106 10.9033 12.6519 12.2217 12.6519 13.584V18.75H9.40967V8.31055H12.52V9.73633H12.564C12.9985 8.91602 14.0581 8.05176 15.6353 8.05176C18.9165 8.05176 19.5269 10.2148 19.5269 13.0273V18.75Z" fill="#094364"/>
</svg>
