<svg width="23" height="22" viewBox="0 0 23 22" fill="none" xmlns="http://www.w3.org/2000/svg">
<path d="M20.4185 0H3.23096C2.60936 0 2.01321 0.24693 1.57368 0.686469C1.13414 1.12601 0.887207 1.72215 0.887207 2.34375L0.887207 19.5312C0.887207 20.1529 1.13414 20.749 1.57368 21.1885C2.01321 21.6281 2.60936 21.875 3.23096 21.875H9.93262V14.438H6.85645V10.9375H9.93262V8.26953C9.93262 5.23486 11.7393 3.55859 14.5063 3.55859C15.8315 3.55859 17.2173 3.79492 17.2173 3.79492V6.77344H15.6904C14.186 6.77344 13.7168 7.70703 13.7168 8.66455V10.9375H17.0752L16.5381 14.438H13.7168V21.875H20.4185C21.0401 21.875 21.6362 21.6281 22.0757 21.1885C22.5153 20.749 22.7622 20.1529 22.7622 19.5312V2.34375C22.7622 1.72215 22.5153 1.12601 22.0757 0.686469C21.6362 0.24693 21.0401 0 20.4185 0Z" fill="#094364"/>
</svg>
